<svg xmlns="http://www.w3.org/2000/svg" width="64" height="64" fill="none"><path fill="#000" d="M42.006 56h-19v6h19v-6Z"/><path fill="url(#a)" d="M42.006 56h-19v6h19v-6Z"/><path fill="#000" d="M15.173 2.452 1.738 15.887l3.535 3.535L18.708 5.987l-3.535-3.535Z"/><path fill="url(#b)" d="M15.173 2.452 1.738 15.887l3.535 3.535L18.708 5.987l-3.535-3.535Z"/><path fill="#000" d="m49.113 2.322-3.536 3.535 13.435 13.435 3.536-3.535L49.113 2.322Z"/><path fill="url(#c)" d="m49.113 2.322-3.536 3.535 13.435 13.435 3.536-3.535L49.113 2.322Z"/><path fill="#000" d="m44.556 9.706-2.691-.114a5.057 5.057 0 0 0-4.283 1.432l-5.505 5.505-5.753-5.754a3.84 3.84 0 0 0-3.858-.909 3.618 3.618 0 0 1-3.611-.903l-.854-.854L7.394 18.716l1.728 1.728-.114 2.69a5.058 5.058 0 0 0 1.432 4.284l9.612 9.612a4.985 4.985 0 0 1 1.691-3.258l-2.995-2.995.707-.707 3.129 3.128a4.947 4.947 0 0 1 1.422-.54v-3.695l-1.722-1.722.707-.707 1.015 1.015v-5.35a3.61 3.61 0 0 1 3.142-3.625c.331-.032.665-.017.991.045l-1.23-1.23.708-.707 1.796 1.797a3.541 3.541 0 0 1 3.403-1.909 3.6 3.6 0 0 1 3.175 3.332 3.557 3.557 0 0 1 1.825-.332 3.62 3.62 0 0 1 3.19 3.663v3.424a5.004 5.004 0 0 1 3.816 3.625l2.788-2.788.708.707-3.316 3.315c0 .014.004.027.004.04v3.32a3.963 3.963 0 0 0 2.379-1.128l6.84-6.84a3.839 3.839 0 0 0 .909-3.858 3.618 3.618 0 0 1 .903-3.611l.854-.854L46.284 7.98l-1.728 1.727Z"/><path fill="url(#d)" d="m44.556 9.706-2.691-.114a5.057 5.057 0 0 0-4.283 1.432l-5.505 5.505-5.753-5.754a3.84 3.84 0 0 0-3.858-.909 3.618 3.618 0 0 1-3.611-.903l-.854-.854L7.394 18.716l1.728 1.728-.114 2.69a5.058 5.058 0 0 0 1.432 4.284l9.612 9.612a4.985 4.985 0 0 1 1.691-3.258l-2.995-2.995.707-.707 3.129 3.128a4.947 4.947 0 0 1 1.422-.54v-3.695l-1.722-1.722.707-.707 1.015 1.015v-5.35a3.61 3.61 0 0 1 3.142-3.625c.331-.032.665-.017.991.045l-1.23-1.23.708-.707 1.796 1.797a3.541 3.541 0 0 1 3.403-1.909 3.6 3.6 0 0 1 3.175 3.332 3.557 3.557 0 0 1 1.825-.332 3.62 3.62 0 0 1 3.19 3.663v3.424a5.004 5.004 0 0 1 3.816 3.625l2.788-2.788.708.707-3.316 3.315c0 .014.004.027.004.04v3.32a3.963 3.963 0 0 0 2.379-1.128l6.84-6.84a3.839 3.839 0 0 0 .909-3.858 3.618 3.618 0 0 1 .903-3.611l.854-.854L46.284 7.98l-1.728 1.727Z"/><path fill="#000" d="M29.88 21.69a2.49 2.49 0 0 0-2.725-2.189 2.598 2.598 0 0 0-2.243 2.63V33.49a4 4 0 0 0-4 4v9.673a3.838 3.838 0 0 0 2.086 3.37 3.618 3.618 0 0 1 1.914 3.193v1.207h15v-2.444l1.984-1.822a5.059 5.059 0 0 0 2.016-4.04V31.488a4 4 0 0 0-4-4v-4.323a2.622 2.622 0 0 0-2.276-2.668 2.492 2.492 0 0 0-2.682 2.1h.458V38.04h-1V22.597h.5v-2.431a2.622 2.622 0 0 0-2.276-2.668 2.502 2.502 0 0 0-2.724 2.49v1.702h.5v15.443h-1V21.69h.468Zm-4.569 20.35h-1v-8h1v8ZM39.413 27.8h1v10.443h-1V27.8Z"/><path fill="url(#e)" d="M29.88 21.69a2.49 2.49 0 0 0-2.725-2.189 2.598 2.598 0 0 0-2.243 2.63V33.49a4 4 0 0 0-4 4v9.673a3.838 3.838 0 0 0 2.086 3.37 3.618 3.618 0 0 1 1.914 3.193v1.207h15v-2.444l1.984-1.822a5.059 5.059 0 0 0 2.016-4.04V31.488a4 4 0 0 0-4-4v-4.323a2.622 2.622 0 0 0-2.276-2.668 2.492 2.492 0 0 0-2.682 2.1h.458V38.04h-1V22.597h.5v-2.431a2.622 2.622 0 0 0-2.276-2.668 2.502 2.502 0 0 0-2.724 2.49v1.702h.5v15.443h-1V21.69h.468Zm-4.569 20.35h-1v-8h1v8ZM39.413 27.8h1v10.443h-1V27.8Z"/><defs><linearGradient id="a" x1="32.506" x2="32.506" y1="56" y2="62" gradientUnits="userSpaceOnUse"><stop stop-color="#EF8080"/><stop offset="1" stop-color="#F0145A"/></linearGradient><linearGradient id="b" x1="8.455" x2="11.991" y1="9.169" y2="12.705" gradientUnits="userSpaceOnUse"><stop stop-color="#EF8080"/><stop offset="1" stop-color="#F0145A"/></linearGradient><linearGradient id="c" x1="47.345" x2="60.78" y1="4.09" y2="17.525" gradientUnits="userSpaceOnUse"><stop stop-color="#EF8080"/><stop offset="1" stop-color="#F0145A"/></linearGradient><linearGradient id="d" x1="32.143" x2="32.143" y1="7.979" y2="37.03" gradientUnits="userSpaceOnUse"><stop stop-color="#EF8080"/><stop offset="1" stop-color="#F0145A"/></linearGradient><linearGradient id="e" x1="32.412" x2="32.412" y1="17.488" y2="54.932" gradientUnits="userSpaceOnUse"><stop stop-color="#EF8080"/><stop offset="1" stop-color="#F0145A"/></linearGradient></defs></svg>